<svg id="Layer_3" data-name="Layer 3" xmlns="http://www.w3.org/2000/svg" viewBox="0 0 210 52"><defs><style>.cls-1{fill:#fc5fa1;fill-rule:evenodd;}.cls-2{fill:#fff;}</style></defs><title>logo</title><path class="cls-1" d="M51.163,17.895l3.9-6.539C56.11,3.566,49.027,2.98,49.027,2.98H42.372Z"/><polygon class="cls-1" points="15.942 2.98 8.161 2.98 33.958 46.747 37.872 40.185 15.942 2.98"/><polygon class="cls-1" points="39.035 2.98 30.66 2.98 45.273 27.772 49.485 20.709 39.035 2.98"/><polygon class="cls-1" points="27.322 2.98 19.28 2.98 39.55 37.37 43.595 30.587 27.322 2.98"/><path class="cls-1" d="M4.937,3.173C-2.254,4.955.53,12.005,0.53,12.005L22.566,49.39c5.316,4.505,9,.916,9.7.141Z"/><path class="cls-2" d="M97.832,40.72H73.979l-4.7,10.813H60.145L81.613,4.808h8.721l21.535,46.725H102.6ZM94.9,33.911l-9-20.425L76.977,33.911H94.9Z"/><path class="cls-2" d="M149.35,15.887L133.744,51.533h-8.79L109.348,15.887h8.86l11.314,26.436,11.652-26.436h8.177Z"/><path class="cls-2" d="M155.074,8.577A4.64,4.64,0,0,1,153.5,5.009a4.642,4.642,0,0,1,1.569-3.572A5.534,5.534,0,0,1,158.959,0a5.707,5.707,0,0,1,3.882,1.369,4.374,4.374,0,0,1,1.569,3.439,4.993,4.993,0,0,1-1.533,3.7,5.376,5.376,0,0,1-3.918,1.5A5.522,5.522,0,0,1,155.074,8.577Zm-0.41,7.309h8.518V51.533h-8.518V15.887Z"/><path class="cls-2" d="M210,2V51.533h-8.177V46.926a13.135,13.135,0,0,1-5.213,3.805A17.941,17.941,0,0,1,189.76,52a19.461,19.461,0,0,1-9.436-2.271,16.449,16.449,0,0,1-6.577-6.44,18.944,18.944,0,0,1-2.385-9.58,18.754,18.754,0,0,1,2.385-9.544,16.527,16.527,0,0,1,6.577-6.407,19.491,19.491,0,0,1,9.436-2.271,17.61,17.61,0,0,1,6.611,1.2,13.314,13.314,0,0,1,5.111,3.6V2H210ZM196.3,43.49a10,10,0,0,0,3.885-3.906,11.752,11.752,0,0,0,1.431-5.875,11.742,11.742,0,0,0-1.431-5.872,10,10,0,0,0-3.885-3.906,11.817,11.817,0,0,0-11.042,0,9.994,9.994,0,0,0-3.882,3.906,11.714,11.714,0,0,0-1.434,5.872,11.724,11.724,0,0,0,1.434,5.875,9.994,9.994,0,0,0,3.882,3.906A11.838,11.838,0,0,0,196.3,43.49Z"/></svg>